<svg width="456" height="281" viewBox="0 0 456 281" fill="none" xmlns="http://www.w3.org/2000/svg">
<g clip-path="url(#clip0_232_146)">
<g filter="url(#filter0_n_232_146)">
<path d="M121 27L72.5 55.5L125 86.5L174 58.5L121 27Z" fill="url(#paint0_linear_232_146)"/>
</g>
<g filter="url(#filter1_n_232_146)">
<path d="M224.5 30L176.5 58L227.5 88.5L276.5 60L224.5 30Z" fill="url(#paint1_linear_232_146)"/>
</g>
<g filter="url(#filter2_n_232_146)">
<path d="M227 89.5L179.5 117.5L228 145.5L275.5 118L227 89.5Z" fill="#E6E6E6"/>
</g>
<g opacity="0.2">
<line x1="315.16" y1="311.433" x2="-31.2501" y2="111.432" stroke="#545454" stroke-dasharray="2 2"/>
<path d="M445.667 332.954L-15.4966 62.5952" stroke="#545454" stroke-dasharray="2 2"/>
<path d="M470.665 289.651L9.50099 19.2935" stroke="#545454" stroke-dasharray="2 2"/>
<path d="M495.664 246.35L34.5 -24.0083" stroke="#545454" stroke-dasharray="2 2"/>
<path d="M520.662 203.047L59.4981 -67.3105" stroke="#545454" stroke-dasharray="2 2"/>
<line x1="545.661" y1="159.746" x2="199.251" y2="-40.2545" stroke="#545454" stroke-dasharray="2 2"/>
<line x1="570.66" y1="116.443" x2="224.249" y2="-83.5568" stroke="#545454" stroke-dasharray="2 2"/>
<line x1="265.16" y1="333.433" x2="-81.2506" y2="133.433" stroke="#545454" stroke-dasharray="2 2"/>
<line x1="-13.25" y1="167.059" x2="351.347" y2="-43.4408" stroke="#545454" stroke-dasharray="2 2"/>
<line x1="-56.25" y1="129.059" x2="308.347" y2="-81.4413" stroke="#545454" stroke-dasharray="2 2"/>
<line x1="98.2622" y1="163.464" x2="444.672" y2="-36.536" stroke="#545454" stroke-dasharray="2 2"/>
<line x1="123.265" y1="206.764" x2="469.675" y2="6.76376" stroke="#545454" stroke-dasharray="2 2"/>
<line x1="148.268" y1="250.063" x2="494.678" y2="50.0631" stroke="#545454" stroke-dasharray="2 2"/>
<line x1="173.271" y1="293.363" x2="519.681" y2="93.3629" stroke="#545454" stroke-dasharray="2 2"/>
<line x1="198.274" y1="336.662" x2="544.684" y2="136.662" stroke="#545454" stroke-dasharray="2 2"/>
<line x1="222.754" y1="367.578" x2="569.164" y2="167.578" stroke="#545454" stroke-dasharray="2 2"/>
</g>
<path d="M188.328 130.855C188.744 130.666 189.225 130.676 189.632 130.884L276.485 175.265C277.546 175.807 277.582 177.309 276.549 177.902L130.748 261.495C130.285 261.76 129.716 261.759 129.254 261.493L29.4355 204.037C29.0833 203.833 29.1083 203.317 29.4785 203.149L188.328 130.855Z" fill="#C6C6C6" stroke="#929294"/>
<path d="M273 165V175.5L205.5 215L129.5 258L32.5 202.5V193C77.5 166.5 89.5 139.5 109.5 146C121.5 118 156 122 178.5 109.5L273 165Z" fill="white"/>
<path d="M32.5 193L129.5 248.5M109.5 146C89.5 139.5 77.5 166.5 32.5 193V202.5L129.5 258L205.5 215L273 175.5V165L178.5 109.5C156 122 121.5 118 109.5 146ZM129.5 248.5C162.5 230.5 189.5 194 205 202.5M129.5 248.5V258M205 202.5C212.5 175.5 260.5 172.5 273 165M205 202.5L205.5 215M205 202.5L109.5 146" stroke="#B8B8BA"/>
<path d="M273 165C260.5 172.5 212.5 175.5 205 202.5L109.5 146C121.5 118 156 122 178.5 109.5L273 165Z" fill="#F7F7F7" stroke="#B8B8BA"/>
<path d="M32.5 193L129.5 248.5C162.5 230.5 189.5 194 205 202.5C212.5 175.5 260.5 172.5 273 165V175.5L205.5 215L129.5 258L32.5 202.5V193Z" fill="#E8E8EA"/>
<path d="M205 202.5C212.5 175.5 260.5 172.5 273 165V175.5L205.5 215L129.5 258L32.5 202.5V193L129.5 248.5M129.5 248.5C162.5 230.5 189.5 194 205 202.5M129.5 248.5V258M205 202.5L205.5 215" stroke="#B8B8BA"/>
<path d="M205 202.5C212.5 175.5 260.5 172.5 273 165" stroke="#B8B8BA"/>
<path d="M53 195.001L49.5 192.501C85 172.009 91.5 154 109.5 152L115 154.5C100 154.5 86 175.5 53 195.001Z" fill="#F6F6F6" stroke="#E6E6E6"/>
<path d="M113.5 229.501L110 227.001C148 201 150 191 169.5 186.5L175 189.5C160 189.5 146.5 210 113.5 229.501Z" fill="#F6F6F6" stroke="#E6E6E6"/>
<path d="M102.5 223.501L99 221.001C104.6 217.802 115.5 211 122 204.5L126 207C118 214.2 107 221 102.5 223.501Z" fill="#F6F6F6" stroke="#E6E6E6"/>
<path d="M124.5 235.001L121 232.501C126.6 229.302 148.5 214.5 159.5 203.5L163.5 206C152.5 217.5 129 232.5 124.5 235.001Z" fill="#F6F6F6" stroke="#E6E6E6"/>
<path d="M93 217.5L61 198.001C102 171 99 163.5 121.5 158L154.5 178C139.5 178 126 197.998 93 217.5Z" fill="#F6F6F6" stroke="#E6E6E6"/>
<path d="M175 177.5L118 145C128 126 148 126.5 179.5 115L235 147C216 156.5 189 154 175 177.5Z" fill="#EDEDED"/>
<path d="M185 184L180.5 181C197 157.5 229 157 238.5 150.5L244 153C224.5 162.5 209.5 157.5 185 184Z" fill="#EDEDED"/>
<path d="M193.5 189.5L189 186.5C205.5 163 227 165.5 233 161L238.5 163.5C229 170 217.5 163.5 193.5 189.5Z" fill="#EDEDED"/>
<path d="M175 177.5L118 145C128 126 148 126.5 179.5 115L235 147C216 156.5 189 154 175 177.5Z" stroke="#E0E0E0"/>
<path d="M185 184L180.5 181C197 157.5 229 157 238.5 150.5L244 153C224.5 162.5 209.5 157.5 185 184Z" stroke="#E0E0E0"/>
<path d="M193.5 189.5L189 186.5C205.5 163 227 165.5 233 161L238.5 163.5C229 170 217.5 163.5 193.5 189.5Z" stroke="#E0E0E0"/>
<path d="M277.903 117.489C278.404 113.858 282.25 111.724 285.596 113.22L489.164 204.216C492.161 205.556 493.324 209.205 491.656 212.032L479.082 233.345C477.552 235.938 474.221 236.818 471.609 235.321L280.261 125.58C278.315 124.465 277.242 122.28 277.548 120.058L277.903 117.489Z" fill="#D9D9D9" stroke="#B3B3B3"/>
<path d="M280.263 113.604L494.801 -10.0035C496.995 -11.2674 499.799 -10.4735 501.004 -8.24688L552.487 86.8783C553.201 88.199 553.21 89.7889 552.51 91.1174L478.98 230.67C477.789 232.928 474.961 233.745 472.75 232.469L280.261 121.401C277.258 119.668 277.26 115.334 280.263 113.604Z" fill="white" stroke="#B3B3B3"/>
<path d="M388.309 169.372L409.031 157.433L420.75 150.681L431.25 144.632L442.249 138.294L608.396 42.5672C609.451 41.9593 610.753 42.795 610.638 44.0072L605.594 97.4829C605.551 97.942 605.298 98.3553 604.91 98.6042L494.731 169.241L474.23 182.384L463.73 189.115L443.737 201.933C443.272 202.231 442.681 202.249 442.198 201.981L431.243 195.88L409.025 183.508L397.451 177.063L388.328 171.983C387.309 171.416 387.299 169.954 388.309 169.372Z" stroke="#CCCCCC"/>
<ellipse cx="303.5" cy="118" rx="5.5" ry="3" fill="black" fill-opacity="0.54"/>
<path d="M313.5 109.5C314.951 109.5 316.241 109.821 317.149 110.317C318.077 110.823 318.5 111.44 318.5 112C318.5 112.559 318.077 113.176 317.149 113.682C316.241 114.178 314.951 114.5 313.5 114.5C312.049 114.5 310.759 114.178 309.851 113.682C308.923 113.176 308.5 112.559 308.5 112C308.5 111.44 308.923 110.823 309.851 110.317C310.759 109.821 312.049 109.5 313.5 109.5Z" fill="#D9D9D9" stroke="#CCCCCC"/>
<path d="M321.5 103.5C322.951 103.5 324.241 103.821 325.149 104.317C326.077 104.823 326.5 105.44 326.5 106C326.5 106.559 326.077 107.176 325.149 107.682C324.241 108.178 322.951 108.5 321.5 108.5C320.049 108.5 318.759 108.178 317.851 107.682C316.923 107.176 316.5 106.559 316.5 106C316.5 105.44 316.923 104.823 317.851 104.317C318.759 103.821 320.049 103.5 321.5 103.5Z" fill="#D9D9D9" stroke="#CCCCCC"/>
<line x1="316.001" y1="125.002" x2="511.499" y2="12.131" stroke="#CCCCCC" stroke-linecap="round"/>
<line x1="344.002" y1="145.005" x2="537.767" y2="33.135" stroke="#CCCCCC" stroke-linecap="round"/>
<line x1="373.183" y1="141.687" x2="404.36" y2="123.687" stroke="#CCCCCC" stroke-linecap="round"/>
<line x1="378.183" y1="143.816" x2="427.546" y2="115.316" stroke="#CCCCCC" stroke-linecap="round"/>
<line x1="383.183" y1="145.946" x2="398.771" y2="136.946" stroke="#CCCCCC" stroke-linecap="round"/>
<line x1="372.002" y1="165.005" x2="565.767" y2="53.135" stroke="#CCCCCC" stroke-linecap="round"/>
<path d="M365.263 144.186C365.409 144.11 365.583 144.111 365.729 144.189L377.648 150.575C377.997 150.762 378.001 151.26 377.655 151.453L366.25 157.789C366.097 157.874 365.911 157.872 365.759 157.786L353.842 150.976C353.498 150.779 353.509 150.28 353.86 150.098L365.263 144.186Z" stroke="#CCCCCC" stroke-linecap="round"/>
<path d="M228.148 239.664L238.98 233.432L330.822 286.549L410.498 240.999L421.923 244.857L417.62 251.682L330.822 300.942L228.148 242.334V239.664Z" fill="#D0CFD4" stroke="#A3A2A8"/>
<path d="M318.507 168L229.483 219.188V220.375L240.76 226.162L239.573 234.619L330.673 287.885L423.406 235.361C423.406 233.432 423.228 229.307 422.516 228.239C421.804 227.171 352.88 187.635 318.507 168Z" fill="#F5F5F5" stroke="#A3A2A8"/>
<path d="M410.053 244.857V234.322C413.12 232.74 419.519 229.486 420.588 229.129C421.656 228.773 422.813 235.213 423.258 238.477C422.863 242.879 421.508 251.326 419.252 249.902C416.997 248.477 412.18 245.945 410.053 244.857Z" fill="#9B9B9D" stroke="#A3A2A8"/>
<path d="M237.793 239.812V227.348V225.716L331.268 279.575L413.021 232.69V246.34L330.377 294.264L237.793 239.812Z" fill="#F3F3F1"/>
<path d="M331.268 279.575L413.021 232.69V246.34L330.377 294.264L237.793 239.812V227.348V225.716L331.268 279.575ZM330.377 294.264L331.268 279.575" stroke="#A3A2A8"/>
<path d="M229.484 222.601V219.188L331.119 278.389L413.317 230.762C423.258 224.678 424 228.091 424 236.696C424 247.973 422.368 250.495 413.317 255.688L331.119 302.871L228.148 243.818V239.664L331.119 299.013L412.13 253.314C420.736 248.269 420.736 247.231 420.736 235.064C420.855 230.672 418.807 231.058 417.175 231.949L331.119 281.505L229.484 222.601Z" fill="#BBBABF" stroke="#A3A2A8"/>
<path d="M330.97 298.864L228 239.515" stroke="#A3A2A8"/>
<path d="M317 216.409L294.5 229.705L354 265L382.5 248.5L322 213.455L317 216.409Z" fill="#D9D9D9"/>
<path d="M360 191L322 213.455L317 216.409L294.5 229.705L271.5 243.5M276 192.5L317 216.409M294.5 229.705L354 265L382.5 248.5L322 213.455" stroke="#A3A2A8"/>
</g>
<defs>
<filter id="filter0_n_232_146" x="72.5" y="27" width="101.5" height="59.5" filterUnits="userSpaceOnUse" color-interpolation-filters="sRGB">
<feFlood flood-opacity="0" result="BackgroundImageFix"/>
<feBlend mode="normal" in="SourceGraphic" in2="BackgroundImageFix" result="shape"/>
<feTurbulence type="fractalNoise" baseFrequency="2 2" stitchTiles="stitch" numOctaves="3" result="noise" seed="7358" />
<feColorMatrix in="noise" type="luminanceToAlpha" result="alphaNoise" />
<feComponentTransfer in="alphaNoise" result="coloredNoise1">
<feFuncA type="discrete" tableValues="1 1 1 1 1 1 1 1 1 1 1 1 1 1 1 1 1 1 1 1 1 1 1 1 1 1 1 1 1 1 1 1 1 1 1 1 1 1 1 1 1 1 1 1 1 1 1 1 1 1 1 0 0 0 0 0 0 0 0 0 0 0 0 0 0 0 0 0 0 0 0 0 0 0 0 0 0 0 0 0 0 0 0 0 0 0 0 0 0 0 0 0 0 0 0 0 0 0 0 0 "/>
</feComponentTransfer>
<feComposite operator="in" in2="shape" in="coloredNoise1" result="noise1Clipped" />
<feFlood flood-color="rgba(0, 0, 0, 0.12)" result="color1Flood" />
<feComposite operator="in" in2="noise1Clipped" in="color1Flood" result="color1" />
<feMerge result="effect1_noise_232_146">
<feMergeNode in="shape" />
<feMergeNode in="color1" />
</feMerge>
</filter>
<filter id="filter1_n_232_146" x="176.5" y="30" width="100" height="58.5" filterUnits="userSpaceOnUse" color-interpolation-filters="sRGB">
<feFlood flood-opacity="0" result="BackgroundImageFix"/>
<feBlend mode="normal" in="SourceGraphic" in2="BackgroundImageFix" result="shape"/>
<feTurbulence type="fractalNoise" baseFrequency="2 2" stitchTiles="stitch" numOctaves="3" result="noise" seed="7358" />
<feColorMatrix in="noise" type="luminanceToAlpha" result="alphaNoise" />
<feComponentTransfer in="alphaNoise" result="coloredNoise1">
<feFuncA type="discrete" tableValues="1 1 1 1 1 1 1 1 1 1 1 1 1 1 1 1 1 1 1 1 1 1 1 1 1 1 1 1 1 1 1 1 1 1 1 1 1 1 1 1 1 1 1 1 1 1 1 1 1 1 1 0 0 0 0 0 0 0 0 0 0 0 0 0 0 0 0 0 0 0 0 0 0 0 0 0 0 0 0 0 0 0 0 0 0 0 0 0 0 0 0 0 0 0 0 0 0 0 0 0 "/>
</feComponentTransfer>
<feComposite operator="in" in2="shape" in="coloredNoise1" result="noise1Clipped" />
<feFlood flood-color="rgba(0, 0, 0, 0.12)" result="color1Flood" />
<feComposite operator="in" in2="noise1Clipped" in="color1Flood" result="color1" />
<feMerge result="effect1_noise_232_146">
<feMergeNode in="shape" />
<feMergeNode in="color1" />
</feMerge>
</filter>
<filter id="filter2_n_232_146" x="179.5" y="89.5" width="96" height="56" filterUnits="userSpaceOnUse" color-interpolation-filters="sRGB">
<feFlood flood-opacity="0" result="BackgroundImageFix"/>
<feBlend mode="normal" in="SourceGraphic" in2="BackgroundImageFix" result="shape"/>
<feTurbulence type="fractalNoise" baseFrequency="2 2" stitchTiles="stitch" numOctaves="3" result="noise" seed="7358" />
<feColorMatrix in="noise" type="luminanceToAlpha" result="alphaNoise" />
<feComponentTransfer in="alphaNoise" result="coloredNoise1">
<feFuncA type="discrete" tableValues="1 1 1 1 1 1 1 1 1 1 1 1 1 1 1 1 1 1 1 1 1 1 1 1 1 1 1 1 1 1 1 1 1 1 1 1 1 1 1 1 1 1 1 1 1 1 1 1 1 1 1 0 0 0 0 0 0 0 0 0 0 0 0 0 0 0 0 0 0 0 0 0 0 0 0 0 0 0 0 0 0 0 0 0 0 0 0 0 0 0 0 0 0 0 0 0 0 0 0 0 "/>
</feComponentTransfer>
<feComposite operator="in" in2="shape" in="coloredNoise1" result="noise1Clipped" />
<feFlood flood-color="rgba(0, 0, 0, 0.12)" result="color1Flood" />
<feComposite operator="in" in2="noise1Clipped" in="color1Flood" result="color1" />
<feMerge result="effect1_noise_232_146">
<feMergeNode in="shape" />
<feMergeNode in="color1" />
</feMerge>
</filter>
<linearGradient id="paint0_linear_232_146" x1="89" y1="32.5" x2="174" y2="87" gradientUnits="userSpaceOnUse">
<stop stop-color="white" stop-opacity="0"/>
<stop offset="1" stop-color="#E6E6E6"/>
</linearGradient>
<linearGradient id="paint1_linear_232_146" x1="159.5" y1="17" x2="260" y2="79" gradientUnits="userSpaceOnUse">
<stop stop-color="white" stop-opacity="0"/>
<stop offset="1" stop-color="#E6E6E6"/>
</linearGradient>
<clipPath id="clip0_232_146">
<rect width="456" height="281" fill="white"/>
</clipPath>
</defs>
</svg>
