<svg width="50" height="50" viewBox="0 0 50 50" fill="none" xmlns="http://www.w3.org/2000/svg">
<g clipPath="url(#clip0_85_19)">
<circle cx="25" cy="25" r="25" fill="black"/>
<path opacity="0.5" d="M22 17C22 13.6863 19.3137 11 16 11C12.6863 11 10 13.6863 10 17V33C10 36.3137 12.6863 39 16 39C19.3137 39 22 36.3137 22 33V17Z" fill="#D9D9D9"/>
<path d="M33 11C36.3137 11 39 13.6863 39 17V33C39 33.1048 38.9965 33.209 38.9912 33.3125C39.0202 34.8505 38.4616 36.3998 37.3086 37.5938C35.0067 39.9773 31.2078 40.0431 28.8242 37.7412L11.9121 21.4092C9.52839 19.1073 9.46174 15.3085 11.7637 12.9248C14.0656 10.5412 17.8644 10.4755 20.248 12.7773L27 19.2969V17C27 13.6863 29.6863 11 33 11Z" fill="#D9D9D9"/>
</g>
<defs>
<clipPath id="clip0_85_19">
<rect width="50" height="50" fill="white"/>
</clipPath>
</defs>
</svg>
