<svg width="128" height="128" viewBox="0 0 128 128" fill="none" xmlns="http://www.w3.org/2000/svg">
<g clip-path="url(#clip0_118_81)">
<path d="M72.0342 36.8027H111.448L109.529 48.138H84.0719L82.1554 59.9783H105.104L103.187 71.3504H80.2388L76.4024 94.5527H62.4482L72.0342 36.8027Z" fill="#00ACD7"/>
<path d="M112.088 51.2388H125.875L118.671 94.5429H104.884L112.088 51.2388ZM113.761 39.569C114.329 35.94 117.911 33 121.788 33C125.665 33 128.427 35.94 127.946 39.569C127.464 43.1981 123.858 46.1648 119.968 46.1648C116.079 46.1648 113.232 43.1746 113.761 39.569Z" fill="#00ACD7"/>
<path d="M63.5117 52.1318H18.5218L14.9229 57.2392L62.6788 57.2125L63.5117 52.1318Z" fill="#00ACD7"/>
<path d="M61.9242 62.7177H3.70261L0 67.805L61.0914 67.7615L61.9242 62.7177Z" fill="#00ACD7"/>
<path d="M60.3356 73.3004H35.4609L32.1162 78.4078L59.5028 78.3877L60.3356 73.3004Z" fill="#00ACD7"/>
</g>
<defs>
<clipPath id="clip0_118_81">
<rect width="128" height="128" fill="white"/>
</clipPath>
</defs>
</svg>
