<svg width="128" height="128" viewBox="0 0 128 128" fill="none" xmlns="http://www.w3.org/2000/svg">
<rect width="128" height="128" fill="#EFAF5D"/>
<path fill-rule="evenodd" clip-rule="evenodd" d="M49.9963 13.9979C37.8963 17.2782 30.8914 28.0964 30.8601 43.5516L30.8494 48.7063L24.6281 48.9128L18.4067 49.1194L18.2034 56.089L18 63.0585H24.4247H30.8494V89.5293V116L39.5593 115.799L48.2692 115.598L48.4555 89.3284L48.6425 63.0585H58.9429H69.2441V55.9103V48.762H58.9344H48.6247L48.6262 43.2221C48.6276 33.3775 51.4901 30.1458 60.6814 29.6111L66.4 29.278V21.1497V13.0207L59.8232 13.0686C56.2055 13.0958 51.7838 13.5139 49.9963 13.9979ZM84.7029 14.6105C82.0267 16.1702 79.1983 20.6786 79.1983 23.3857C79.1983 24.1205 79.8716 26.1206 80.695 27.8305C84.0616 34.8222 93.5131 35.848 99.1066 29.8291C100.615 28.2058 100.884 27.2322 100.884 23.3857C100.884 19.5392 100.615 18.5656 99.1066 16.9422C95.1825 12.7191 89.5207 11.8034 84.7029 14.6105ZM86.1363 44.2879C81.7323 44.5181 81.3064 44.6811 80.904 46.293C80.1283 49.4004 81.1393 51.1788 85.0378 53.5628L88.7969 55.8624L85.8256 55.886C79.0447 55.941 78.83 61.0456 85.4353 65.1787L88.755 67.2567L85.0072 67.7564L81.2588 68.256L81.4728 71.1918C81.6648 73.8224 82.0437 74.3628 85.1203 76.3815L88.5531 78.6353L84.9049 79.1393L81.2566 79.6439L81.4714 82.6048C81.6655 85.2696 82.0338 85.7929 85.158 87.8437L88.6284 90.1219L85.869 90.5851C81.5276 91.3135 81.3313 91.4636 81.3313 94.0563C81.3313 96.2165 81.7551 96.7798 84.9134 98.817C86.8836 100.088 88.3177 101.307 88.0994 101.526C87.8819 101.745 86.3503 102.106 84.6951 102.328L81.6868 102.731L81.482 109.344L81.278 115.956H86.2814H91.2855V112.803V109.651L97.3369 109.144C102.866 108.681 103.424 108.495 103.8 106.987C104.488 104.23 103.474 102.563 99.6043 100.09L95.9071 97.7276L99.6399 97.5117L103.373 97.2951V94.1907C103.373 91.227 103.203 90.9768 99.6441 88.6879L95.9163 86.2904L99.4664 85.933L103.017 85.5756L103.233 82.6005C103.445 79.6768 103.379 79.5839 99.4657 77.2393L95.4826 74.8532L99.2495 74.4958C102.54 74.1834 103.047 73.9253 103.254 72.4571C103.702 69.2754 102.747 67.6978 99.0704 65.5483L95.4229 63.416L98.7924 63.0585C102.618 62.6525 103.82 61.373 103.096 58.4744C102.741 57.0533 101.102 55.5629 97.0219 52.9523L91.4341 49.3761L91.8088 46.5675C92.015 45.022 91.9019 43.8211 91.5571 43.8983C91.2123 43.9755 88.7728 44.1507 86.1363 44.2879Z" fill="#46351D"/>
</svg>
