<svg width="128" height="128" viewBox="0 0 128 128" fill="none" xmlns="http://www.w3.org/2000/svg">
<path d="M8.60069 95.9722C9.18146 97.0047 10.0203 97.779 11.0528 98.3598L60.7409 127.011C62.8059 128.237 65.3225 128.237 67.323 127.011L117.011 98.3598C119.076 97.1983 120.302 95.0043 120.302 92.6167V35.314C120.302 32.9264 119.076 30.7324 117.011 29.5709L67.323 0.919552C65.258 -0.306517 62.7413 -0.306517 60.7409 0.919552L11.0528 29.5709C8.92334 30.7324 7.69727 32.9264 7.69727 35.314V92.6812C7.69727 93.8427 7.95539 94.9397 8.60069 95.9722Z" fill="#009639"/>
<path d="M48.0933 85.841C48.0933 89.3902 45.254 92.2295 41.7049 92.2295C38.1557 92.2295 35.3164 89.3902 35.3164 85.841V42.0252C35.3164 38.6051 38.3493 35.8303 42.5438 35.8303C45.5767 35.8303 49.1258 37.0563 51.2553 39.7021L53.1912 42.0252L79.9066 73.9675V42.1542C79.9066 38.6051 82.7459 35.7657 86.2951 35.7657C89.8442 35.7657 92.6836 38.6051 92.6836 42.1542V85.9701C92.6836 89.3902 89.6506 92.165 85.4562 92.165C82.4233 92.165 78.8741 90.9389 76.7447 88.2932L48.0933 54.0923V85.841Z" fill="white"/>
</svg>
