<svg width="667" height="667" viewBox="0 0 667 667" fill="none" xmlns="http://www.w3.org/2000/svg">
<path d="M558.333 0H108.333C79.6015 0 52.0465 11.4137 31.7301 31.7301C11.4137 52.0465 0 79.6015 0 108.333V558.333C0 572.56 2.80212 586.647 8.24638 599.791C13.6906 612.934 21.6704 624.877 31.7301 634.937C41.7898 644.996 53.7324 652.976 66.876 658.42C80.0196 663.865 94.1068 666.667 108.333 666.667H558.333C572.56 666.667 586.647 663.865 599.791 658.42C612.934 652.976 624.877 644.996 634.937 634.937C644.996 624.877 652.976 612.934 658.42 599.791C663.865 586.647 666.667 572.56 666.667 558.333V108.333C666.667 94.1068 663.865 80.0196 658.42 66.876C652.976 53.7324 644.996 41.7898 634.937 31.7301C624.877 21.6704 612.934 13.6906 599.791 8.24638C586.647 2.80212 572.56 0 558.333 0ZM493.333 368.333C493.333 370 493.333 371.667 490 373.333L178.333 530C176.667 531.667 173.333 528.333 173.333 526.667V446.667C173.333 445 173.333 443.333 175 443.333L401.667 330L175 215C173.333 215 173.333 213.333 173.333 211.667V131.667C173.333 130 176.667 126.667 178.333 128.333L490 285C491.035 285.776 491.875 286.783 492.454 287.94C493.032 289.097 493.333 290.373 493.333 291.667V368.333Z" fill="#61A133"/>
</svg>
